PathFileType	4	(X/Y/Z)	traj.trc
DataRate	CameraRate	NumFrames	NumMarkers	Units	OrigDataRate	OrigDataStartFrame	OrigNumFrames
30.00	30.00	100	1	mm	30.00	1	100
Frame#	Time	wrist		
		X1	Y1	Z1

0	0.0	100.0	900.0	100.0
1	0.10101010101010101	100.0	900.0	100.0
2	0.20202020202020202	100.00149969392442	899.9940012243025	100.00149969392442
3	0.30303030303030304	100.00887636416479	899.964494543341	100.00887636416479
4	0.40404040404040403	100.02770529933807	899.8891788026477	100.02770529933807
5	0.5050505050505051	100.0632057590995	899.7471769636021	100.0632057590995
6	0.6060606060606061	100.12024846948927	899.5190061220429	100.12024846948927
7	0.7070707070707071	100.20336311827904	899.1865475268838	100.20336311827904
8	0.8080808080808081	100.3167458503185	898.7330165987261	100.3167458503185
9	0.9090909090909091	100.46426676288193	898.1429329484722	100.46426676288193
10	1.0101010101010102	100.64947740101482	897.4020903959407	100.64947740101482
11	1.1111111111111112	100.87561825288032	896.4975269884787	100.87561825288032
12	1.2121212121212122	101.1456262451059	895.4174950195764	101.1456262451059
13	1.3131313131313131	101.46214223812986	894.1514310474806	101.46214223812986
14	1.4141414141414141	101.82751852154789	892.6899259138085	101.82751852154789
15	1.5151515151515151	102.24382630945969	891.0246947621613	102.24382630945969
16	1.6161616161616161	102.71286323581545	889.1485470567383	102.71286323581545
17	1.7171717171717171	103.23616084976243	887.0553566009503	103.23616084976243
18	1.8181818181818181	103.8149921109916	884.7400315560336	103.8149921109916
19	1.9191919191919191	104.45037888508408	882.1984844596637	104.45037888508408
20	2.0202020202020203	105.14309943885776	879.4276022445689	105.14309943885776
21	2.121212121212121	105.89369593571392	876.4252162571444	105.89369593571392
22	2.2222222222222223	106.70248193098367	873.1900722760654	106.70248193098367
23	2.323232323232323	107.5695498672746	869.7218005309016	107.5695498672746
24	2.4242424242424243	108.4947785698173	866.0208857207309	108.4947785698173
25	2.525252525252525	109.47784074181195	862.0886370327522	109.47784074181195
26	2.6262626262626263	110.51821045977488	857.9271581609006	110.51821045977488
27	2.727272727272727	111.61517066888504	853.5393173244598	111.61517066888504
28	2.8282828282828283	112.76782067833075	848.928717286677	112.76782067833075
29	2.929292929292929	113.97508365665604	844.0996653733758	113.97508365665604
30	3.0303030303030303	115.2357141271074	839.0571434915704	115.2357141271074
31	3.131313131313131	116.54830546298022	833.8067781480792	116.54830546298022
32	3.2323232323232323	117.91129738296539	828.3548104681385	117.91129738296539
33	3.3333333333333335	119.32298344649588	822.7080662140165	119.32298344649588
34	3.4343434343434343	120.78151854909329	816.8739258036269	120.78151854909329
35	3.5353535353535355	122.28492641771435	810.8602943291427	122.28492641771435
36	3.6363636363636362	123.8311071060976	804.6755715756096	123.8311071060976
37	3.7373737373737375	125.41784449010984	798.3286220395606	125.41784449010984
38	3.8383838383838382	127.0428137630928	791.8287449476289	127.0428137630928
39	3.9393939393939394	128.70358893120948	785.1856442751621	128.70358893120948
40	4.040404040404041	130.3976503087911	778.4093987648356	130.3976503087911
41	4.141414141414141	132.12239201368325	771.510431945267	132.12239201368325
42	4.242424242424242	133.87512946259272	764.4994821496291	133.87512946259272
43	4.343434343434343	135.6531068664339	757.3875725342645	135.6531068664339
44	4.444444444444445	137.45350472567546	750.1859810972982	137.45350472567546
45	4.545454545454545	139.2734473256869	742.9062106972525	139.2734473256869
46	4.646464646464646	141.11001023208496	735.5599590716602	141.11001023208496
47	4.747474747474747	142.96022778608045	728.1590888556783	142.96022778608045
48	4.848484848484849	144.8211005998245	720.7155976007022	144.8211005998245
49	4.94949494949495	146.6896030517553	713.2415877929787	146.6896030517553
50	5.05050505050505	148.56269078194484	705.7492368722206	148.56269078194484
51	5.151515151515151	150.43730818744498	698.2507672502201	150.43730818744498
52	5.252525252525253	152.3103959176345	690.758416329462	152.3103959176345
53	5.353535353535354	154.1788983695654	683.2844065217384	154.1788983695654
54	5.454545454545454	156.03977118330943	675.8409152667624	156.03977118330943
55	5.555555555555555	157.88998873730486	668.4400450507806	157.88998873730486
56	5.656565656565657	159.72655164370298	661.0937934251881	159.72655164370298
57	5.757575757575758	161.54649424371436	653.8140230251425	161.54649424371436
58	5.858585858585858	163.34689210295593	646.6124315881763	163.34689210295593
59	5.959595959595959	165.12486950679713	639.5005219728115	165.12486950679713
60	6.0606060606060606	166.87760695570657	632.4895721771737	166.87760695570657
61	6.161616161616162	168.60234866059875	625.590605357605	168.60234866059875
62	6.262626262626262	170.29641003818037	618.8143598472786	170.29641003818037
63	6.363636363636363	171.95718520629708	612.1712591748118	171.95718520629708
64	6.4646464646464645	173.58215447928	605.6713820828801	173.58215447928
65	6.565656565656566	175.16889186329226	599.324432546831	175.16889186329226
66	6.666666666666667	176.71507255167552	593.139709793298	176.71507255167552
67	6.767676767676767	178.2184804202966	587.1260783188137	178.2184804202966
68	6.8686868686868685	179.67701552289398	581.2919379084242	179.67701552289398
69	6.96969696969697	181.0887015864245	575.6451936543021	181.0887015864245
70	7.070707070707071	182.45169350640967	570.1932259743614	182.45169350640967
71	7.171717171717171	183.76428484228248	564.9428606308702	183.76428484228248
72	7.2727272727272725	185.0249153127338	559.9003387490648	185.0249153127338
73	7.373737373737374	186.2321782910591	555.0712868357635	186.2321782910591
74	7.474747474747475	187.3848283005048	550.4606867979808	187.3848283005048
75	7.575757575757575	188.481788509615	546.07284596154	188.481788509615
76	7.6767676767676765	189.5221582275779	541.9113670896885	189.5221582275779
77	7.777777777777778	190.50522039957258	537.9791184017098	190.50522039957258
78	7.878787878787879	191.43044910211526	534.278203591539	191.43044910211526
79	7.979797979797979	192.2975170384062	530.8099318463752	192.2975170384062
80	8.080808080808081	193.10630303367597	527.5747878652962	193.10630303367597
81	8.181818181818182	193.85689953053208	524.5724018778717	193.85689953053208
82	8.282828282828282	194.5496200843058	521.8015196627769	194.5496200843058
83	8.383838383838384	195.18500685839825	519.259972566407	195.18500685839825
84	8.484848484848484	195.76383811962742	516.9446475214904	195.76383811962742
85	8.585858585858587	196.2871357335744	514.8514570657024	196.2871357335744
86	8.686868686868687	196.75617265993014	512.9753093602794	196.75617265993014
87	8.787878787878787	197.17248044784193	511.31007820863226	197.17248044784193
88	8.88888888888889	197.53785673125998	509.84857307496014	197.53785673125998
89	8.98989898989899	197.85437272428393	508.58250910286426	197.85437272428393
90	9.09090909090909	198.1243807165095	507.50247713396203	198.1243807165095
91	9.191919191919192	198.35052156837503	506.5979137265	198.35052156837503
92	9.292929292929292	198.53573220650787	505.8570711739685	198.53573220650787
93	9.393939393939394	198.6832531190713	505.2669875237148	198.6832531190713
94	9.494949494949495	198.79663585111078	504.813456595557	198.79663585111078
95	9.595959595959595	198.87975049990052	504.4809980003979	198.87975049990052
96	9.696969696969697	198.9367932102903	504.2528271588389	198.9367932102903
97	9.797979797979798	198.97229367005176	504.11082531979304	198.97229367005176
98	9.8989898989899	198.99112260522506	504.0355095790998	198.99112260522506
99	10.0	198.99849927546543	504.0060028981384	198.99849927546543
